<?xml version="1.0" encoding="UTF-8" standalone="no"?><!DOCTYPE svg PUBLIC "-//W3C//DTD SVG 1.1//EN" "http://www.w3.org/Graphics/SVG/1.1/DTD/svg11.dtd"><svg width="100%" height="100%" viewBox="0 0 16 16" version="1.1" xmlns="http://www.w3.org/2000/svg" xmlns:xlink="http://www.w3.org/1999/xlink" xml:space="preserve" xmlns:serif="http://www.serif.com/" style="fill-rule:evenodd;clip-rule:evenodd;stroke-linecap:round;stroke-linejoin:round;stroke-miterlimit:1.5;"><path id="Fan" d="M7.68,3.522c1.123,1.23 1.343,2.585 0.66,4.064c0.691,0.271 1.105,0.931 1.014,1.618c1.731,0.195 2.894,1.048 3.489,2.559c-1.717,0.281 -3.1,-0.221 -4.149,-1.505c-0.6,0.416 -1.427,0.416 -2.027,0c-1.049,1.284 -2.432,1.786 -4.149,1.505c0.595,-1.511 1.758,-2.364 3.489,-2.559c-0.091,-0.687 0.322,-1.347 1.014,-1.618c-0.683,-1.479 -0.463,-2.834 0.66,-4.064Zm0,5.113c0.228,0 0.413,0.171 0.413,0.381c0,0.21 -0.185,0.381 -0.413,0.381c-0.228,0 -0.413,-0.171 -0.413,-0.381c0,-0.21 0.185,-0.381 0.413,-0.381Z" style="fill:none;stroke:#e718b7;stroke-width:0.7px;"/></svg>