<?xml version="1.0" encoding="UTF-8" standalone="no"?><!DOCTYPE svg PUBLIC "-//W3C//DTD SVG 1.1//EN" "http://www.w3.org/Graphics/SVG/1.1/DTD/svg11.dtd"><svg width="100%" height="100%" viewBox="0 0 16 16" version="1.1" xmlns="http://www.w3.org/2000/svg" xmlns:xlink="http://www.w3.org/1999/xlink" xml:space="preserve" xmlns:serif="http://www.serif.com/" style="fill-rule:evenodd;clip-rule:evenodd;stroke-linejoin:round;stroke-miterlimit:2;"><g id="Footstep"><path d="M8.635,7.32c-0.032,-0.08 -0.571,-0.483 -0.164,-2.051c0.378,-1.456 1.06,-1.987 1.739,-1.931c1.886,0.155 1.377,4.126 0.36,4.345c-0.154,0.033 -0.159,0.029 -1.935,-0.363Z" style="fill:none;stroke:#e718b7;stroke-width:0.7px;"/><path d="M6.598,9.08c-0.194,0.059 -0.388,0.119 -0.583,0.178c-0.596,0.112 -0.591,0.105 -1.183,0.217c-0.151,-0.111 -0.245,0.01 -0.522,-0.381c-0.598,-0.844 -0.811,-4.067 0.975,-3.972c1.495,0.079 1.99,3.098 1.513,3.819c-0.045,0.068 -0.155,0.071 -0.2,0.139Z" style="fill:none;stroke:#e718b7;stroke-width:0.7px;"/><path d="M8.194,8.21c0.122,0.014 0.239,-0.085 0.361,-0.072c0.289,0.033 0.262,0.121 0.782,0.237c0.851,0.19 0.855,0.166 0.928,0.185c0.393,0.102 0.19,0.825 -0.146,1.175c-1.369,1.429 -2.292,-0.167 -2.065,-1.182c0.027,-0.121 0.114,-0.223 0.141,-0.344Z" style="fill:none;stroke:#e718b7;stroke-width:0.7px;"/><path d="M4.945,10.267c0.739,-0.051 0.741,-0.013 1.146,-0.112c0.658,-0.161 0.721,-0.348 0.99,-0.053c0.3,0.33 0.201,0.87 0.187,0.946c-0.27,1.478 -1.964,1.118 -2.343,-0.007c-0.159,-0.473 0.018,-0.727 0.02,-0.775Z" style="fill:none;stroke:#e718b7;stroke-width:0.7px;"/></g></svg>