<?xml version="1.0" encoding="UTF-8" standalone="no"?><!DOCTYPE svg PUBLIC "-//W3C//DTD SVG 1.1//EN" "http://www.w3.org/Graphics/SVG/1.1/DTD/svg11.dtd"><svg width="100%" height="100%" viewBox="0 0 16 16" version="1.1" xmlns="http://www.w3.org/2000/svg" xmlns:xlink="http://www.w3.org/1999/xlink" xml:space="preserve" xmlns:serif="http://www.serif.com/" style="fill-rule:evenodd;clip-rule:evenodd;stroke-linecap:round;stroke-linejoin:round;stroke-miterlimit:1.5;"><path id="Item" d="M10.802,8.21l0,2.471c0,0.741 -0.601,1.342 -1.342,1.342l-4.781,0c-0.741,0 -1.342,-0.601 -1.342,-1.342l0,-4.781c0,-0.741 0.601,-1.342 1.342,-1.342l2.87,0c-0.014,0.124 -0.022,0.249 -0.022,0.377c0,1.807 1.467,3.275 3.275,3.275Zm0,-4.872c0.674,0 1.22,0.547 1.22,1.22c0,0.674 -0.547,1.22 -1.22,1.22c-0.674,0 -1.22,-0.547 -1.22,-1.22c0,-0.674 0.547,-1.22 1.22,-1.22Z" style="fill:none;stroke:#e718b7;stroke-width:0.7px;"/></svg>