<?xml version="1.0" encoding="UTF-8" standalone="no"?>
<!DOCTYPE svg PUBLIC "-//W3C//DTD SVG 1.1//EN" "http://www.w3.org/Graphics/SVG/1.1/DTD/svg11.dtd">
<svg width="100%" height="100%" viewBox="0 0 128 128" version="1.1" xmlns="http://www.w3.org/2000/svg" xmlns:xlink="http://www.w3.org/1999/xlink" xml:space="preserve" xmlns:serif="http://www.serif.com/" style="fill-rule:evenodd;clip-rule:evenodd;stroke-linejoin:round;stroke-miterlimit:2;">
    <path d="M128,32L128,96C128,113.661 113.661,128 96,128L32,128C14.339,128 0,113.661 0,96L0,32C0,14.339 14.339,0 32,0L96,0C113.661,0 128,14.339 128,32Z" style="fill:rgb(37,37,37);"/>
    <g transform="matrix(0.68673,0,0,0.718268,28.972023,23.811154)">
        <path d="M17.034,17.043C49.809,-13.892 99.228,7.887 98.976,53.5C98.782,88.651 100.991,98.196 92.133,105.052C79.188,115.071 67.746,104.212 66.238,102.78C63.749,100.418 63.131,106.428 55.526,108.589C42.497,112.293 38.463,100.225 35.752,102.771C34.474,103.972 25.014,112.854 14.397,107.737C1.989,101.755 3.005,91.385 3.024,86.5C3.177,45.632 0.323,34.743 17.034,17.043L60.026,76.271C65.925,60.026 53.018,54.161 47.621,56.791C30.784,64.997 47.319,96.209 60.026,76.271L17.034,17.043L32.864,49.024C48.911,56.812 49.211,31.874 35.633,34.972C35.533,34.995 31.344,36.117 30.1,40.382C28.527,45.771 32.691,48.817 32.864,49.024L17.034,17.043L57.976,37.864C50.187,53.913 75.127,54.209 72.028,40.633C71.966,40.363 70.774,36.314 66.618,35.1C61.231,33.526 58.183,37.691 57.976,37.864L17.034,17.043Z" style="fill:white;fill-opacity:1;"/>
    </g>
</svg>
