<?xml version="1.0" encoding="UTF-8" standalone="no"?><!DOCTYPE svg PUBLIC "-//W3C//DTD SVG 1.1//EN" "http://www.w3.org/Graphics/SVG/1.1/DTD/svg11.dtd"><svg width="100%" height="100%" viewBox="0 0 16 16" version="1.1" xmlns="http://www.w3.org/2000/svg" xmlns:xlink="http://www.w3.org/1999/xlink" xml:space="preserve" xmlns:serif="http://www.serif.com/" style="fill-rule:evenodd;clip-rule:evenodd;stroke-linejoin:round;stroke-miterlimit:2;"><path id="Random_sounds" d="M9.001,6.982c-0.301,-0.865 -0.181,-1.014 -1.004,-1.413c-1.659,-0.803 -2.646,0.511 -2.837,0.969c-0.205,0.491 -0.241,0.464 -0.489,0.943c-0.135,-0.073 -0.325,0.041 -0.46,-0.032c-0.097,-0.052 -0.588,-0.7 0.157,-1.76c0.158,-0.225 1.172,-1.668 3.129,-1.406c1.762,0.236 3.235,2.704 2.302,4.573c-0.476,0.954 -0.488,0.942 -0.88,1.933c-0.699,1.765 -2.308,1.525 -2.345,0.956c-0.04,-0.612 0.963,-0.906 1.192,-1.515c0.163,-0.433 0.013,-0.501 0.807,-1.764c-0.439,-0.604 -0.359,-0.7 -1.037,-1.025c-0.17,-0.082 -0.316,-0.25 -0.505,-0.257c-0.181,-0.007 -0.329,0.15 -0.496,0.22c-0.614,0.256 -0.636,0.059 -0.923,0.086c0.08,-0.154 0.1,-0.335 0.181,-0.489c0.682,-1.31 1.866,-0.779 2.181,-0.461c0.211,0.213 0.297,0.573 0.572,0.692c0.159,0.068 0.296,-0.318 0.455,-0.25Zm-3.542,3.832c-0.053,0.104 0.013,0.244 -0.04,0.349c-0.155,0.306 -0.282,0.348 -0.319,0.36c-0.241,0.078 -0.219,-0.185 -0.458,-0.107c-0.114,-0.131 -0.299,-0.188 -0.413,-0.319c-0.057,-0.065 -0.024,-0.18 -0.078,-0.247c-0.043,-0.053 -0.049,-0.039 -0.669,-0.526c0.018,-0.139 -0.041,-0.281 -0.023,-0.42c0.008,-0.064 0.057,-0.118 0.1,-0.167c0.274,-0.317 0.631,-0.236 0.636,-0.238c0.143,-0.084 0.319,-0.103 0.462,-0.187c0.279,-0.165 0.196,-0.27 0.496,-0.402c1.028,-0.455 1.402,0.311 0.602,1.093c-0.503,0.492 -0.242,0.669 -0.294,0.812Zm4.661,-5.936c-0.629,-0.681 -0.632,-0.671 -0.679,-0.736c-0.042,-0.057 -0.477,-0.649 -0.002,-0.891c0.807,-0.411 2.384,1.616 2.463,2.798c0.006,0.09 0.069,1.028 -0.588,0.966c-0.529,-0.049 -0.334,-0.288 -0.551,-0.936c-0.348,-1.041 -0.479,-0.963 -0.643,-1.201Z" style="fill:none;stroke:#e718b7;stroke-width:0.8px;"/></svg>