<?xml version="1.0" encoding="UTF-8" standalone="no"?><!DOCTYPE svg PUBLIC "-//W3C//DTD SVG 1.1//EN" "http://www.w3.org/Graphics/SVG/1.1/DTD/svg11.dtd"><svg width="100%" height="100%" viewBox="0 0 16 16" version="1.1" xmlns="http://www.w3.org/2000/svg" xmlns:xlink="http://www.w3.org/1999/xlink" xml:space="preserve" xmlns:serif="http://www.serif.com/" style="fill-rule:evenodd;clip-rule:evenodd;stroke-linecap:round;stroke-linejoin:round;stroke-miterlimit:1.5;"><g id="Switch"><path d="M10.696,4.015l0,6.447c0,0.832 -0.676,1.508 -1.508,1.508l-3.016,0c-0.832,0 -1.508,-0.676 -1.508,-1.508l0,-6.447c0,-0.832 0.676,-1.508 1.508,-1.508l3.016,0c0.832,0 1.508,0.676 1.508,1.508Z" style="fill:none;stroke:#e718b7;stroke-width:0.6px;"/><path d="M9.318,4.775l0,0.845c0,0.233 -0.189,0.422 -0.422,0.422l-2.327,0c-0.233,0 -0.422,-0.189 -0.422,-0.422l0,-0.845c0,-0.233 0.189,-0.422 0.422,-0.422l2.327,0c0.233,0 0.422,0.189 0.422,0.422Z" style="fill:none;stroke:#e718b7;stroke-width:0.6px;"/><path d="M6.146,9.915l3.172,-0.018" style="fill:none;stroke:#e718b7;stroke-width:0.4px;"/></g></svg>