<?xml version="1.0" encoding="UTF-8" standalone="no"?><!DOCTYPE svg PUBLIC "-//W3C//DTD SVG 1.1//EN" "http://www.w3.org/Graphics/SVG/1.1/DTD/svg11.dtd"><svg width="100%" height="100%" viewBox="0 0 16 16" version="1.1" xmlns="http://www.w3.org/2000/svg" xmlns:xlink="http://www.w3.org/1999/xlink" xml:space="preserve" xmlns:serif="http://www.serif.com/" style="fill-rule:evenodd;clip-rule:evenodd;stroke-linecap:round;stroke-linejoin:round;stroke-miterlimit:1.5;"><path id="Torch" d="M6.3,7.298c-0.875,-0.428 -1.479,-1.328 -1.479,-2.368l0,-0.094l5.718,0l0,0.094c0,1.013 -0.573,1.894 -1.413,2.334l0,4.227c0,0.39 -0.317,0.707 -0.707,0.707l-1.413,0c-0.39,0 -0.707,-0.317 -0.707,-0.707l0,-4.194Zm1.775,0.579c0,-0.109 -0.088,-0.197 -0.197,-0.197l-0.394,0c-0.109,0 -0.197,0.088 -0.197,0.197l0,1.084c0,0.109 0.088,0.197 0.197,0.197l0.394,0c0.109,0 0.197,-0.088 0.197,-0.197l0,-1.084Zm-3.253,-3.894l0,-0.192c-0,-0.217 0.026,-0.428 0.076,-0.629l5.567,0c0.05,0.202 0.076,0.413 0.076,0.629l0,0.192l-5.718,0Z" style="fill:none;stroke:#e718b7;stroke-width:0.7px;"/></svg>