# Blender 5.0.0
# www.blender.org
mtllib door_frame.mtl
o door_frame
v 0.650000 -0.000000 -0.100000
v 0.650000 2.250000 -0.100000
v -0.650000 -0.000000 -0.100000
v -0.650000 2.250000 -0.100000
v -0.650000 0.000000 0.100000
v -0.650000 2.250000 0.100000
v 0.650000 0.000000 0.100000
v 0.650000 2.250000 0.100000
v 0.600000 -0.000000 -0.100000
v 0.600000 2.200000 -0.100000
v 0.600000 0.000000 0.100000
v 0.600000 2.200000 0.100000
v -0.600000 -0.000000 -0.100000
v -0.600000 2.200000 -0.100000
v -0.600000 2.200000 0.100000
v -0.600000 0.000000 0.100000
v 0.650000 -0.000000 -0.125000
v 0.650000 2.250000 -0.125000
v 0.600000 -0.000000 -0.125000
v 0.600000 2.200000 -0.125000
v -0.650000 -0.000000 -0.125000
v -0.650000 2.250000 -0.125000
v -0.600000 2.200000 -0.125000
v -0.600000 -0.000000 -0.125000
v 0.650000 0.000000 0.125000
v 0.650000 2.250000 0.125000
v 0.600000 2.200000 0.125000
v 0.600000 0.000000 0.125000
v -0.650000 0.000000 0.125000
v -0.650000 2.250000 0.125000
v -0.600000 0.000000 0.125000
v -0.600000 2.200000 0.125000
v 0.675000 -0.000000 -0.100000
v 0.675000 2.275000 -0.100000
v 0.675000 -0.000000 -0.125000
v 0.675000 2.275000 -0.125000
v -0.675000 -0.000000 -0.100000
v -0.675000 2.275000 -0.100000
v -0.675000 2.275000 -0.125000
v -0.675000 -0.000000 -0.125000
v 0.675000 0.000000 0.100000
v 0.675000 2.275000 0.100000
v 0.675000 2.275000 0.125000
v 0.675000 0.000000 0.125000
v -0.675000 0.000000 0.100000
v -0.675000 2.275000 0.100000
v -0.675000 0.000000 0.125000
v -0.675000 2.275000 0.125000
vn -1.0000 -0.0000 -0.0000
vn 1.0000 -0.0000 -0.0000
vn -0.0000 -1.0000 -0.0000
vn -0.0000 -0.0000 -1.0000
vn -0.0000 -0.0000 1.0000
vn -0.0000 1.0000 -0.0000
vt 0.809288 0.780655
vt 0.809288 0.047318
vt 0.875955 0.047318
vt 0.875955 0.780655
vt 0.775816 0.047318
vt 0.775816 0.780655
vt 0.709149 0.780655
vt 0.709149 0.047318
vt 0.497807 0.862935
vt 0.897809 0.862935
vt 0.897809 0.929602
vt 0.497807 0.929602
vt 0.017541 0.813860
vt 0.017541 0.063857
vt 0.034208 0.063857
vt 0.034208 0.797194
vt 0.914311 0.064931
vt 0.914311 0.814934
vt 0.897644 0.798268
vt 0.897644 0.064931
vt 0.450876 0.063857
vt 0.450876 0.813860
vt 0.434209 0.797194
vt 0.434209 0.063857
vt 0.480976 0.814934
vt 0.480976 0.064931
vt 0.497643 0.064931
vt 0.497643 0.798268
vt 0.928260 0.848673
vt 0.928260 0.090337
vt 0.936593 0.090337
vt 0.936593 0.848673
vt 0.800955 0.780655
vt 0.800955 0.047318
vt 0.949175 0.090334
vt 0.949175 0.848675
vt 0.940842 0.848675
vt 0.940842 0.090334
vt 0.784149 0.047318
vt 0.784149 0.780655
vt 0.017076 0.958048
vt 0.467080 0.958048
vt 0.467080 0.966381
vt 0.017076 0.966381
vt 0.497807 0.854602
vt 0.897809 0.854602
vt 0.961757 0.090339
vt 0.961757 0.848671
vt 0.953423 0.848671
vt 0.953423 0.090339
vt 0.884289 0.047318
vt 0.884289 0.780655
vt 0.966005 0.848671
vt 0.966005 0.090339
vt 0.974339 0.090339
vt 0.974339 0.848671
vt 0.700815 0.780655
vt 0.700815 0.047318
vt 0.467078 0.949722
vt 0.017078 0.949722
vt 0.017078 0.941389
vt 0.467078 0.941389
vt 0.897809 0.937936
vt 0.497807 0.937936
vt 0.544982 0.027160
vt 0.544982 0.777167
vt 0.536649 0.777167
vt 0.536648 0.018827
vt 0.009208 0.822194
vt 0.009208 0.063857
vt 0.978319 0.777167
vt 0.978319 0.027160
vt 0.986652 0.018827
vt 0.986652 0.777167
vt 0.459209 0.063857
vt 0.459209 0.822194
vt 0.514099 0.779744
vt 0.514099 0.029742
vt 0.522432 0.021408
vt 0.522433 0.779744
vt 0.922644 0.064931
vt 0.922644 0.823268
vt 0.080764 0.029742
vt 0.080764 0.779744
vt 0.072431 0.779744
vt 0.072431 0.021408
vt 0.472643 0.823268
vt 0.472643 0.064931
vt 0.429803 0.863623
vt 0.429803 0.930290
vt 0.029801 0.930290
vt 0.029801 0.863623
s 1
usemtl lambert1
f 10/1/1 9/2/1 11/3/1 12/4/1
f 13/5/2 14/6/2 15/7/2 16/8/2
f 14/9/3 10/10/3 12/11/3 15/12/3
f 18/13/4 17/14/4 19/15/4 20/16/4
f 25/17/5 26/18/5 27/19/5 28/20/5
f 21/21/4 22/22/4 23/23/4 24/24/4
f 30/25/5 29/26/5 31/27/5 32/28/5
f 22/22/4 18/13/4 20/16/4 23/23/4
f 26/18/5 30/25/5 32/28/5 27/19/5
f 34/29/2 33/30/2 35/31/2 36/32/2
f 9/2/1 10/1/1 20/33/1 19/34/1
f 37/35/1 38/36/1 39/37/1 40/38/1
f 14/6/2 13/5/2 24/39/2 23/40/2
f 38/41/6 34/42/6 36/43/6 39/44/6
f 10/10/3 14/9/3 23/45/3 20/46/3
f 41/47/2 42/48/2 43/49/2 44/50/2
f 12/4/1 11/3/1 28/51/1 27/52/1
f 46/53/1 45/54/1 47/55/1 48/56/1
f 16/8/2 15/7/2 32/57/2 31/58/2
f 42/59/6 46/60/6 48/61/6 43/62/6
f 15/12/3 12/11/3 27/63/3 32/64/3
f 2/65/5 1/66/5 33/67/5 34/68/5
f 17/14/4 18/13/4 36/69/4 35/70/4
f 3/71/5 4/72/5 38/73/5 37/74/5
f 22/22/4 21/21/4 40/75/4 39/76/4
f 4/72/5 2/65/5 34/68/5 38/73/5
f 18/13/4 22/22/4 39/76/4 36/69/4
f 7/77/4 8/78/4 42/79/4 41/80/4
f 26/18/5 25/17/5 44/81/5 43/82/5
f 6/83/4 5/84/4 45/85/4 46/86/4
f 29/26/5 30/25/5 48/87/5 47/88/5
f 8/78/4 6/83/4 46/86/4 42/79/4
f 30/25/5 26/18/5 43/82/5 48/87/5
f 11/89/6 9/90/6 13/91/6 16/92/6
