# Blender 5.0.0
# www.blender.org
mtllib Fan.mtl
o Fan
v -0.000000 0.070118 -0.163445
v 0.096070 0.070118 -0.132230
v 0.155445 0.070118 -0.050507
v 0.155445 0.070118 0.050507
v 0.096070 0.070118 0.132230
v -0.000000 0.070118 0.163445
v -0.096070 0.070118 0.132230
v -0.155445 0.070118 0.050507
v -0.155445 0.070118 -0.050507
v -0.096070 0.070118 -0.132230
v -0.061845 0.277282 0.085123
v -0.100068 0.277282 0.032514
v -0.061845 0.277282 -0.085123
v -0.000000 0.277282 -0.105217
v 0.100068 0.277282 -0.032514
v 0.100068 0.277282 0.032514
v -0.000000 0.277282 0.105217
v -0.100068 0.277282 -0.032514
v 0.061845 0.277282 -0.085123
v 0.061845 0.277282 0.085123
v 0.022404 0.308780 -0.030837
v 0.036250 0.308780 -0.011778
v 0.036250 0.308780 0.011778
v 0.022404 0.308780 0.030837
v -0.000000 0.308780 0.038116
v -0.022404 0.308780 0.030837
v -0.036250 0.308780 0.011779
v -0.036250 0.308780 -0.011778
v -0.022404 0.308780 -0.030837
v -0.000000 0.308780 -0.038116
v -0.082783 0.245783 -0.113942
v -0.133946 0.245783 -0.043522
v -0.133946 0.245783 0.043522
v -0.082783 0.245783 0.113942
v 0.000000 0.245783 0.140840
v 0.082783 0.245783 0.113942
v 0.133946 0.245783 0.043522
v 0.133946 0.245783 -0.043522
v 0.000000 0.245783 -0.140840
v 0.082783 0.245783 -0.113942
v 0.022404 0.842231 -0.030837
v 0.022404 0.842231 -0.030837
v -0.000000 0.842231 -0.038116
v -0.000000 0.842231 -0.038116
v 0.036250 0.842231 -0.011778
v 0.036250 0.842231 -0.011778
v 0.036250 0.842231 0.011779
v 0.036250 0.842231 0.011779
v 0.022404 0.842231 0.030837
v 0.022404 0.842231 0.030837
v -0.000000 0.842231 0.038116
v -0.000000 0.842231 0.038116
v -0.022404 0.842231 0.030837
v -0.022404 0.842231 0.030837
v -0.036250 0.842231 0.011779
v -0.036250 0.842231 0.011779
v -0.036250 0.842231 -0.011778
v -0.036250 0.842231 -0.011778
v -0.022404 0.842231 -0.030837
v -0.022404 0.842231 -0.030837
v -0.000000 1.050026 0.163445
v 0.096070 1.050026 0.132230
v 0.155445 1.050026 0.050507
v 0.155445 1.050026 -0.050507
v 0.096070 1.050026 -0.132230
v -0.000000 1.050026 -0.163445
v -0.096070 1.050026 -0.132230
v -0.155445 1.050026 -0.050507
v -0.155445 1.050026 0.050507
v -0.096070 1.050026 0.132230
v -0.061845 0.873729 -0.085123
v -0.100068 0.873729 -0.032514
v -0.061845 0.873729 0.085123
v -0.000000 0.873729 0.105217
v 0.100068 0.873729 0.032514
v 0.100068 0.873729 -0.032514
v -0.000000 0.873729 -0.105217
v -0.100068 0.873729 0.032514
v 0.061845 0.873729 0.085123
v 0.061845 0.873729 -0.085123
v -0.116665 1.080893 -0.160575
v 0.116665 1.080893 0.160575
v 0.000000 1.080893 0.198482
v 0.188767 1.080893 0.061334
v 0.188767 1.080893 -0.061334
v 0.116665 1.080893 -0.160575
v 0.000000 1.080893 -0.198482
v -0.082783 0.905228 0.113942
v -0.133946 0.905228 0.043522
v -0.133946 0.905228 -0.043522
v -0.082783 0.905228 -0.113942
v 0.000000 0.905228 -0.140840
v 0.082783 0.905228 -0.113942
v 0.133946 0.905228 -0.043522
v 0.133946 0.905228 0.043522
v 0.000000 0.905228 0.140840
v 0.082783 0.905228 0.113942
v -0.188767 1.080893 -0.061334
v -0.188767 1.080893 0.061334
v -0.116665 1.080893 0.160575
v -0.116665 1.126665 -0.160575
v -0.000000 1.126665 -0.198482
v -0.116665 1.126665 0.160575
v -0.188767 1.126665 0.061334
v -0.000000 1.126665 0.198482
v -0.188767 1.126665 -0.061334
v 0.188767 1.126665 -0.061334
v 0.188767 1.126665 0.061334
v 0.116665 1.126665 -0.160575
v 0.116665 1.126665 0.160575
v 0.000000 -0.026815 -0.279383
v -0.000000 0.070118 -0.163445
v 0.164217 -0.026815 -0.226025
v 0.096070 0.070118 -0.132230
v 0.265709 -0.026815 -0.086334
v 0.155445 0.070118 -0.050507
v 0.265709 -0.026815 0.086334
v 0.155445 0.070118 0.050507
v 0.164217 -0.026815 0.226025
v 0.096070 0.070118 0.132230
v 0.000000 -0.026815 0.279383
v -0.000000 0.070118 0.163445
v -0.164217 -0.026815 0.226025
v -0.096070 0.070118 0.132230
v -0.265709 -0.026815 0.086334
v -0.155445 0.070118 0.050507
v -0.265709 -0.026815 -0.086334
v -0.155445 0.070118 -0.050507
v -0.164217 -0.026815 -0.226025
v -0.096070 0.070118 -0.132230
v 0.000000 -0.026815 -0.306364
v 0.000000 -0.026815 -0.306364
v 0.000000 -0.026815 -0.306364
v 0.180076 -0.026815 -0.247854
v 0.180076 -0.026815 -0.247854
v 0.291370 -0.026815 -0.094672
v 0.291370 -0.026815 -0.094672
v 0.291370 -0.026815 0.094672
v 0.291370 -0.026815 0.094672
v 0.180076 -0.026815 0.247854
v 0.180076 -0.026815 0.247854
v 0.000000 -0.026815 0.306364
v 0.000000 -0.026815 0.306364
v -0.180076 -0.026815 0.247854
v -0.180076 -0.026815 0.247854
v -0.291370 -0.026815 0.094672
v -0.291370 -0.026815 0.094672
v -0.291370 -0.026815 -0.094672
v -0.291370 -0.026815 -0.094672
v -0.180076 -0.026815 -0.247854
v -0.180076 -0.026815 -0.247854
v -0.000000 -0.050752 -0.252093
v 0.148176 -0.050752 -0.203947
v 0.239754 -0.050752 -0.077901
v 0.239754 -0.050752 0.077901
v 0.148176 -0.050752 0.203947
v -0.000000 -0.050752 0.252093
v -0.148176 -0.050752 0.203947
v -0.239754 -0.050752 0.077901
v -0.239754 -0.050752 -0.077901
v -0.148176 -0.050752 -0.203947
v 0.167906 0.070118 -0.231103
v 0.167906 0.070118 -0.231103
v 0.000000 0.070118 -0.285659
v 0.000000 0.070118 -0.285659
v 0.000000 0.070118 -0.285659
v 0.271678 0.070118 -0.088274
v 0.271678 0.070118 -0.088274
v 0.271678 0.070118 0.088274
v 0.271678 0.070118 0.088274
v 0.167906 0.070118 0.231103
v 0.167906 0.070118 0.231103
v 0.000000 0.070118 0.285659
v 0.000000 0.070118 0.285659
v -0.167906 0.070118 0.231103
v -0.167906 0.070118 0.231103
v -0.271678 0.070118 0.088274
v -0.271678 0.070118 0.088274
v -0.271678 0.070118 -0.088274
v -0.271678 0.070118 -0.088274
v -0.167906 0.070118 -0.231103
v -0.167906 0.070118 -0.231103
v 0.000000 0.046203 -0.306364
v 0.000000 0.046203 -0.306364
v 0.180076 0.046203 -0.247854
v 0.291370 0.046203 -0.094672
v 0.291370 0.046203 0.094672
v 0.180076 0.046203 0.247854
v 0.000000 0.046203 0.306364
v -0.180076 0.046203 0.247854
v -0.291370 0.046203 0.094672
v -0.291370 0.046203 -0.094672
v -0.180076 0.046203 -0.247854
v -1.718681 0.000000 -1.137511
v -1.844453 0.000000 -0.919667
v -0.250502 0.003758 -0.232041
v -0.326205 0.003758 -0.100921
v -1.658762 0.000000 -1.135645
v -1.812879 0.000000 -0.868708
v -1.658762 0.010690 -1.135645
v -1.718681 0.010690 -1.137511
v -1.844453 0.010690 -0.919667
v -1.812879 0.010690 -0.868708
v -0.326205 0.006932 -0.100921
v -0.250502 0.006932 -0.232041
v -0.365412 0.000000 -0.033012
v -0.211295 0.000000 -0.299950
v -0.365412 0.010690 -0.033012
v -0.211295 0.010690 -0.299950
v -0.273304 0.003758 -0.070379
v -0.197602 0.003758 -0.201499
v -0.273304 0.006932 -0.070379
v -0.197602 0.006932 -0.201499
v -0.125772 0.000000 2.057177
v 0.125772 0.000000 2.057177
v -0.075702 0.003758 0.332962
v 0.075703 0.003758 0.332962
v -0.154117 0.000000 2.004353
v 0.154116 0.000000 2.004353
v -0.154117 0.010690 2.004353
v -0.125772 0.010690 2.057177
v 0.125772 0.010690 2.057177
v 0.154116 0.010690 2.004353
v 0.075703 0.006932 0.332962
v -0.075702 0.006932 0.332962
v 0.154116 0.000000 0.332962
v -0.154117 0.000000 0.332962
v 0.154116 0.010690 0.332962
v -0.154117 0.010690 0.332962
v 0.075702 0.003758 0.271878
v -0.075702 0.003758 0.271878
v 0.075702 0.006932 0.271878
v -0.075702 0.006932 0.271878
v 1.844454 0.000000 -0.919667
v 1.718681 0.000000 -1.137511
v 0.326205 0.003758 -0.100921
v 0.250502 0.003758 -0.232041
v 1.812879 0.000000 -0.868708
v 1.658762 0.000000 -1.135646
v 1.812879 0.010690 -0.868708
v 1.844454 0.010690 -0.919667
v 1.718681 0.010690 -1.137511
v 1.658762 0.010690 -1.135646
v 0.250502 0.006932 -0.232041
v 0.326205 0.006932 -0.100921
v 0.211295 0.000000 -0.299950
v 0.365412 0.000000 -0.033012
v 0.211295 0.010690 -0.299950
v 0.365412 0.010690 -0.033012
v 0.197602 0.003758 -0.201499
v 0.273304 0.003758 -0.070379
v 0.197602 0.006932 -0.201499
v 0.273304 0.006932 -0.070379
vn -0.0000 -1.0000 -0.0000
vn -0.0000 1.0000 -0.0000
vn -0.2104 0.7324 -0.6476
vn -0.2104 0.7324 0.6476
vn -0.5509 -0.7324 0.4002
vn -0.2104 -0.7324 0.6476
vn 0.6809 -0.7324 -0.0000
vn -0.5509 -0.7324 -0.4002
vn 0.5509 0.7324 0.4002
vn -0.5509 0.7324 -0.4002
vn 0.2104 -0.7324 0.6476
vn 0.5509 0.7324 -0.4002
vn -0.4426 0.8967 -0.0000
vn 0.0377 -0.6362 0.7706
vn -0.4835 -0.6362 0.6013
vn -0.1368 -0.8967 0.4209
vn -0.0377 -0.6362 -0.7706
vn 0.4835 -0.6362 -0.6013
vn 0.1368 -0.8967 -0.4209
vn -0.1368 0.8967 -0.4209
vn 0.4225 -0.6362 -0.6456
vn 0.7446 -0.6362 -0.2023
vn 0.3581 -0.8967 -0.2602
vn 0.3581 0.8967 0.2602
vn -0.7213 -0.6362 0.2740
vn -0.7213 -0.6362 -0.2740
vn -0.4426 -0.8967 -0.0000
vn 0.3581 0.8967 -0.2602
vn 0.1368 0.8967 -0.4209
vn -0.3067 0.1215 0.9440
vn 0.3067 0.1215 -0.9440
vn -0.8030 0.1215 -0.5834
vn -0.9926 0.1215 -0.0000
vn -0.8030 0.1215 0.5834
vn 0.8030 0.1215 0.5834
vn -0.3067 0.1215 -0.9440
vn 0.8030 0.1215 -0.5834
vn 0.9926 0.1215 -0.0000
vn 0.3067 0.1215 0.9440
vn 0.9892 -0.1469 -0.0000
vn 0.7446 -0.6362 0.2023
vn 0.4225 -0.6362 0.6456
vn 0.3581 -0.8967 0.2602
vn -0.9064 -0.3739 0.1966
vn -0.4670 -0.3737 0.8014
vn -0.8090 -0.0000 0.5878
vn 0.9065 -0.3737 -0.1965
vn 0.4670 -0.3738 -0.8013
vn 0.8090 -0.0000 -0.5878
vn 0.8488 -0.3738 0.3738
vn 0.8488 -0.3738 -0.3738
vn 1.0000 -0.0000 -0.0000
vn -0.0932 -0.3738 0.9228
vn 0.6178 -0.3738 0.6918
vn 0.3090 -0.0000 0.9511
vn 0.3090 -0.0000 -0.9511
vn 0.4670 -0.3738 0.8013
vn 0.9065 -0.3738 0.1965
vn 0.8090 -0.0000 0.5878
vn 0.6178 -0.3738 -0.6918
vn -0.0931 -0.3739 -0.9228
vn 0.1368 0.8967 0.4209
vn -0.2100 -0.7336 -0.6463
vn 0.2104 -0.7324 -0.6476
vn 0.5509 -0.7324 0.4002
vn 0.2104 0.7324 0.6476
vn -0.2104 -0.7324 -0.6476
vn -0.5509 0.7324 0.4002
vn 0.2104 0.7324 -0.6476
vn 0.6809 0.7324 -0.0000
vn -0.6809 0.7324 -0.0000
vn 0.5509 -0.7324 -0.4002
vn -0.3581 0.8967 -0.2602
vn -0.1368 0.8967 0.4209
vn 0.4426 0.8967 -0.0000
vn -0.3581 0.8967 0.2602
vn -0.7446 -0.6362 -0.2023
vn -0.4225 -0.6362 -0.6456
vn -0.3581 -0.8967 -0.2602
vn 0.7213 -0.6362 -0.2740
vn 0.7213 -0.6362 0.2740
vn 0.4426 -0.8967 -0.0000
vn 0.4834 -0.6362 0.6013
vn -0.0377 -0.6362 0.7706
vn 0.1368 -0.8967 0.4209
vn -0.4834 -0.6362 -0.6013
vn 0.0377 -0.6362 -0.7706
vn -0.1368 -0.8967 -0.4209
vn -0.3057 -0.1469 -0.9407
vn -0.9892 -0.1469 -0.0000
vn 0.3057 -0.1469 0.9407
vn -0.6809 -0.7324 -0.0000
vn -0.8002 -0.1469 0.5814
vn -0.8002 -0.1469 -0.5814
vn -0.3057 -0.1469 0.9407
vn 0.8002 -0.1469 -0.5814
vn 0.3057 -0.1469 -0.9407
vn 0.8002 -0.1469 0.5814
vn -0.4225 -0.6362 0.6456
vn -0.7446 -0.6362 0.2023
vn -0.3581 -0.8967 0.2602
vn -0.8488 -0.3739 -0.3737
vn -0.8488 -0.3738 0.3738
vn -1.0000 -0.0000 -0.0000
vn -0.5498 -0.7336 -0.3994
vn -0.6796 -0.7336 -0.0000
vn -0.5498 -0.7336 0.3994
vn 0.2100 -0.7336 -0.6463
vn 0.5498 -0.7336 -0.3994
vn 0.6796 -0.7336 -0.0000
vn 0.2100 -0.7336 0.6463
vn 0.5498 -0.7336 0.3994
vn -0.2100 -0.7336 0.6463
vn -0.8090 -0.0000 -0.5878
vn -0.4670 -0.3738 -0.8014
vn -0.9064 -0.3738 -0.1966
vn 0.0932 -0.3738 -0.9228
vn -0.6178 -0.3738 -0.6918
vn -0.3090 -0.0000 -0.9511
vn -0.3090 -0.0000 0.9511
vn -0.6178 -0.3738 0.6918
vn 0.0933 -0.3737 0.9228
vn -0.3463 0.7934 -0.5006
vn -0.6245 0.6357 -0.4538
vn -0.5832 0.7934 -0.1746
vn -0.0141 0.7934 0.6085
vn 0.2386 0.6357 0.7342
vn 0.3691 0.7934 0.4840
vn -0.5744 0.7934 -0.2015
vn -0.7720 0.6357 -0.0000
vn -0.5744 0.7934 0.2015
vn 0.5744 0.7934 0.2015
vn 0.7720 0.6357 -0.0000
vn 0.5744 0.7934 -0.2015
vn -0.3691 0.7934 0.4840
vn -0.2386 0.6357 0.7342
vn 0.0141 0.7934 0.6086
vn 0.5485 -0.7351 -0.3985
vn 0.3463 0.7934 0.5006
vn 0.6245 0.6357 0.4538
vn 0.5832 0.7934 0.1746
vn -0.0000 0.8776 -0.4795
vn -0.0748 0.4872 -0.8701
vn -0.2386 0.6357 -0.7342
vn -0.3691 0.7934 -0.4840
vn 0.2818 0.8776 0.3879
vn 0.2819 0.8776 -0.3879
vn 0.5832 0.7934 -0.1746
vn 0.6245 0.6357 -0.4538
vn 0.3463 0.7934 -0.5006
vn 0.3691 0.7934 -0.4840
vn 0.2386 0.6357 -0.7342
vn 0.0748 0.4872 -0.8701
vn -0.2095 -0.7351 -0.6448
vn -0.7278 -0.6437 0.2364
vn -0.0001 -0.6437 -0.7653
vn 0.0001 -0.6437 0.7653
vn -0.7278 -0.6437 -0.2365
vn -0.0000 0.8776 0.4795
vn 0.4560 0.8776 -0.1482
vn -0.4498 -0.6437 -0.6191
vn 0.7278 -0.6437 -0.2366
vn 0.4560 0.8776 0.1482
vn -0.4560 0.8776 0.1481
vn -0.2818 0.8776 -0.3879
vn -0.2818 0.8776 0.3879
vn 0.4499 -0.6437 -0.6191
vn 0.4498 -0.6437 0.6191
vn 0.7278 -0.6437 0.2364
vn -0.4499 -0.6437 0.6191
vn 0.6780 -0.7351 -0.0000
vn -0.2095 -0.7351 0.6448
vn 0.2095 -0.7351 -0.6448
vn -0.6780 -0.7351 -0.0000
vn 0.5485 -0.7351 0.3985
vn -0.7278 -0.6437 0.2366
vn -0.5485 -0.7351 0.3985
vn 0.2095 -0.7351 0.6448
vn -0.5485 -0.7351 -0.3985
vn -0.4560 0.8776 0.1482
vn 0.7278 -0.6437 -0.2364
vn -0.4560 0.8776 -0.1481
vn 0.7278 -0.6437 0.2365
vn 0.4560 0.8776 -0.1481
vn 0.2818 0.8776 -0.3879
vn -0.4560 0.8776 -0.1482
vn -0.7278 -0.6437 -0.2364
vn -0.1239 0.1800 -0.9758
vn -0.0000 -0.6437 -0.7653
vn -0.6411 -0.4092 -0.6492
vn -0.8660 -0.0000 -0.5000
vn 0.8501 -0.0000 0.5267
vn -0.8501 -0.0000 0.5267
vn -0.0000 -0.0000 -1.0000
vn 0.0311 -0.0000 -0.9995
vn 0.8812 -0.0000 0.4728
vn -0.9003 -0.4091 0.1483
vn -0.4193 -0.4092 0.8104
vn 0.8660 -0.0000 0.5000
vn 0.8156 -0.4091 0.4092
vn 0.8156 -0.4091 -0.4093
vn -0.5000 -0.0000 0.8660
vn 0.6412 -0.4091 -0.6492
vn 0.1239 0.1800 -0.9758
vn -0.0000 -0.0000 1.0000
vn -0.1371 -0.4091 0.9021
vn 0.6411 -0.4092 0.6492
vn -0.8660 -0.0000 0.5000
vn 0.5000 -0.0000 -0.8660
vn -0.8812 -0.0000 0.4728
vn 0.8660 -0.0000 -0.5000
vn 0.5000 -0.0000 0.8660
vn -0.0311 -0.0000 -0.9995
vn -0.5832 0.7934 0.1746
vn -0.6245 0.6357 0.4538
vn -0.3463 0.7934 0.5006
vn -0.5000 -0.0000 -0.8660
vn 0.4193 -0.4091 0.8104
vn 0.9003 -0.4092 0.1484
vn 0.9003 -0.4093 -0.1484
vn 0.4193 -0.4092 -0.8104
vn -0.8156 -0.4091 -0.4092
vn -0.8156 -0.4092 0.4091
vn -0.6412 -0.4091 0.6492
vn 0.1371 -0.4092 0.9021
vn -0.4193 -0.4091 -0.8104
vn -0.9003 -0.4092 -0.1484
vt 0.708067 0.500000
vt 0.626451 0.500000
vt 0.708067 0.500000
s 0
usemtl 
f 1/1/1 2/1/1 3/1/1
f 3/1/1 4/1/1 5/1/1
f 5/1/1 6/1/1 7/1/1
f 7/1/1 8/1/1 9/1/1
f 9/1/1 10/1/1 1/1/1
f 104/1/2 105/1/2 109/1/2 101/1/2
f 5/1/1 7/1/1 9/1/1
f 13/1/3 14/1/3 39/1/3 31/1/3
f 17/1/4 11/1/4 34/1/4 35/1/4
f 78/1/5 73/1/5 88/1/5 89/1/5
f 73/1/6 74/1/6 96/1/6 88/1/6
f 75/1/7 76/1/7 94/1/7 95/1/7
f 71/1/8 72/1/8 90/1/8 91/1/8
f 16/1/9 20/1/9 36/1/9 37/1/9
f 18/1/10 13/1/10 31/1/10 32/1/10
f 74/1/11 79/1/11 97/1/11 96/1/11
f 19/1/12 15/1/12 38/1/12 40/1/12
f 27/1/13 28/1/13 18/1/13 12/1/13
f 54/1/14 51/1/15 74/1/16 73/1/16
f 42/1/17 44/1/18 77/1/19 80/1/19
f 29/1/20 30/1/20 14/1/20 13/1/20
f 45/1/21 42/1/22 80/1/23 76/1/23
f 23/1/24 24/1/24 20/1/24 16/1/24
f 58/1/25 55/1/26 78/1/27 72/1/27
f 21/1/28 22/1/28 15/1/28 19/1/28
f 30/1/29 21/1/29 19/1/29 14/1/29
f 35/1/30 34/1/30 7/1/30 6/1/30
f 39/1/31 40/1/31 2/1/31 1/1/31
f 32/1/32 31/1/32 10/1/32 9/1/32
f 33/1/33 32/1/33 9/1/33 8/1/33
f 34/1/34 33/1/34 8/1/34 7/1/34
f 37/1/35 36/1/35 5/1/35 4/1/35
f 31/1/36 39/1/36 1/1/36 10/1/36
f 40/1/37 38/1/37 3/1/37 2/1/37
f 38/1/38 37/1/38 4/1/38 3/1/38
f 36/1/39 35/1/39 6/1/39 5/1/39
f 95/1/40 94/1/40 64/1/40 63/1/40
f 49/1/41 48/1/42 75/1/43 79/1/43
f 53/2/44 56/2/45 27/2/46 26/2/46
f 41/2/47 46/2/48 22/2/49 21/2/49
f 46/2/50 47/2/51 23/2/52 22/2/52
f 50/2/53 52/2/54 25/2/55 24/2/55
f 110/1/55 105/1/55 83/1/55 82/1/55
f 102/1/56 109/1/56 86/1/56 87/1/56
f 47/2/57 50/2/58 24/2/59 23/2/59
f 43/2/60 41/2/61 21/2/56 30/2/56
f 109/1/49 107/1/49 85/1/49 86/1/49
f 24/1/62 25/1/62 17/1/62 20/1/62
f 81/1/63 87/1/63 66/1/63 67/1/63
f 80/1/64 77/1/64 92/1/64 93/1/64
f 79/1/65 75/1/65 95/1/65 97/1/65
f 20/1/66 17/1/66 35/1/66 36/1/66
f 77/1/67 71/1/67 91/1/67 92/1/67
f 11/1/68 12/1/68 33/1/68 34/1/68
f 14/1/69 19/1/69 40/1/69 39/1/69
f 15/1/70 16/1/70 37/1/70 38/1/70
f 12/1/71 18/1/71 32/1/71 33/1/71
f 76/1/72 80/1/72 93/1/72 94/1/72
f 28/1/73 29/1/73 13/1/73 18/1/73
f 25/1/74 26/1/74 11/1/74 17/1/74
f 22/1/75 23/1/75 16/1/75 15/1/75
f 26/1/76 27/1/76 12/1/76 11/1/76
f 59/1/77 58/1/78 72/1/79 71/1/79
f 48/1/80 45/1/81 76/1/82 75/1/82
f 51/1/83 49/1/84 79/1/85 74/1/85
f 5/1/1 9/1/1 1/1/1 3/1/1
f 44/1/86 59/1/87 71/1/88 77/1/88
f 92/1/89 91/1/89 67/1/89 66/1/89
f 90/1/90 89/1/90 69/1/90 68/1/90
f 96/1/91 97/1/91 62/1/91 61/1/91
f 72/1/92 78/1/92 89/1/92 90/1/92
f 89/1/93 88/1/93 70/1/93 69/1/93
f 91/1/94 90/1/94 68/1/94 67/1/94
f 88/1/95 96/1/95 61/1/95 70/1/95
f 94/1/96 93/1/96 65/1/96 64/1/96
f 93/1/97 92/1/97 66/1/97 65/1/97
f 97/1/98 95/1/98 63/1/98 62/1/98
f 55/1/99 54/1/100 73/1/101 78/1/101
f 56/2/102 57/2/103 28/2/104 27/2/104
f 98/1/105 81/1/105 67/1/105 68/1/105
f 99/1/106 98/1/106 68/1/106 69/1/106
f 100/1/107 99/1/107 69/1/107 70/1/107
f 87/1/108 86/1/108 65/1/108 66/1/108
f 86/1/109 85/1/109 64/1/109 65/1/109
f 85/1/110 84/1/110 63/1/110 64/1/110
f 82/1/111 83/1/111 61/1/111 62/1/111
f 84/1/112 82/1/112 62/1/112 63/1/112
f 83/1/113 100/1/113 70/1/113 61/1/113
f 105/1/2 110/1/2 108/1/2
f 108/1/2 107/1/2 109/1/2
f 109/1/2 102/1/2 101/1/2
f 101/1/2 106/1/2 104/1/2
f 104/1/2 103/1/2 105/1/2
f 105/1/2 108/1/2 109/1/2
f 106/1/114 101/1/114 81/1/114 98/1/114
f 107/1/52 108/1/52 84/1/52 85/1/52
f 57/2/115 60/2/116 29/2/114 28/2/114
f 103/1/46 104/1/46 99/1/46 100/1/46
f 104/1/104 106/1/104 98/1/104 99/1/104
f 60/2/117 43/2/118 30/2/119 29/2/119
f 101/1/119 102/1/119 87/1/119 81/1/119
f 105/1/120 103/1/120 100/1/120 83/1/120
f 108/1/59 110/1/59 82/1/59 84/1/59
f 52/2/121 53/2/122 26/2/120 25/2/120
f 181/3/123 193/3/124 192/1/124 180/1/125
f 174/1/126 189/1/127 188/1/127 172/1/128
f 180/1/129 192/1/130 191/1/130 178/1/131
f 170/1/132 187/1/133 186/1/133 168/1/134
f 176/1/135 190/1/136 189/1/136 174/1/137
f 154/1/138 153/1/138 113/1/138 115/1/138
f 172/1/139 188/1/140 187/1/140 170/1/141
f 164/1/142 183/1/143 193/3/144 181/3/145
f 116/1/2 114/1/2 112/1/2
f 112/1/2 130/1/2 128/1/2
f 128/1/2 126/1/2 124/1/2
f 124/1/2 122/1/2 120/1/2
f 120/1/2 118/1/2 116/1/2
f 116/1/2 112/1/2 128/1/2
f 169/1/146 167/1/147 116/1/2 118/1/2
f 168/1/148 186/1/149 185/1/149 163/1/150
f 163/1/151 185/1/152 184/1/153 166/1/142
f 152/1/154 161/1/154 129/1/154 111/1/154
f 149/1/155 151/1/156 129/1/1 127/1/1
f 145/1/157 147/1/158 125/1/1 123/1/1
f 171/1/159 169/1/160 118/1/2 120/1/2
f 132/1/161 134/1/162 113/1/1 111/1/1
f 167/1/163 162/1/142 114/1/2 116/1/2
f 175/1/164 173/1/146 122/1/2 124/1/2
f 203/2/2 200/2/2 201/2/2 202/2/2
f 179/1/165 177/1/166 126/1/2 128/1/2
f 137/1/167 139/1/168 117/1/1 115/1/1
f 141/1/169 143/1/170 121/1/1 119/1/1
f 161/2/1 152/2/1 153/2/1
f 153/2/1 154/2/1 155/2/1
f 155/2/1 156/2/1 157/2/1
f 157/2/1 158/2/1 159/2/1
f 159/2/1 160/2/1 161/2/1
f 173/1/166 171/1/163 120/1/2 122/1/2
f 155/2/1 157/2/1 159/2/1
f 155/1/171 154/1/171 115/1/171 117/1/171
f 158/1/172 157/1/172 121/1/172 123/1/172
f 153/1/173 152/1/173 111/1/173 113/1/173
f 160/1/174 159/1/174 125/1/174 127/1/174
f 156/1/175 155/1/175 117/1/175 119/1/175
f 143/1/168 145/1/176 123/1/1 121/1/1
f 159/1/177 158/1/177 123/1/177 125/1/177
f 157/1/178 156/1/178 119/1/178 121/1/178
f 161/1/179 160/1/179 127/1/179 129/1/179
f 182/1/142 179/1/180 128/1/2 130/1/2
f 139/1/181 141/1/157 119/1/1 117/1/1
f 147/1/170 149/1/161 127/1/1 125/1/1
f 177/1/182 175/1/159 124/1/2 126/1/2
f 120/1/2 116/1/2 128/1/2 124/1/2
f 155/2/1 159/2/1 161/2/1 153/2/1
f 134/1/156 137/1/183 115/1/1 113/1/1
f 162/1/184 165/1/165 112/1/2 114/1/2
f 165/1/185 182/1/186 130/1/2 112/1/2
f 151/1/187 132/1/167 111/1/1 129/1/1
f 230/1/52 232/1/52 224/1/52 217/1/52
f 183/1/188 131/1/189 150/3/190 193/3/119
f 202/2/191 201/2/191 194/2/191 195/2/191
f 241/2/192 240/2/192 238/2/192 234/2/192
f 203/2/193 202/2/193 195/2/193 199/2/193
f 233/1/194 232/1/194 230/1/194 231/1/194
f 201/2/195 200/2/195 198/2/195 194/2/195
f 223/2/196 222/2/196 215/2/196 219/2/196
f 191/1/46 146/1/197 144/1/198 190/1/46
f 213/1/199 212/1/199 210/1/199 211/1/199
f 231/1/1 230/1/1 217/1/1 216/1/1
f 219/2/1 215/2/1 214/2/1 218/2/1
f 206/2/1 199/2/1 198/2/1 207/2/1
f 199/2/1 195/2/1 194/2/1 198/2/1
f 187/1/52 138/1/200 136/1/201 186/1/52
f 208/2/202 203/2/202 199/2/202 206/2/202
f 185/1/56 135/1/203 133/1/189 184/1/204
f 222/2/205 221/2/205 214/2/205 215/2/205
f 210/1/202 212/1/202 204/1/202 197/1/202
f 189/1/55 142/1/206 140/1/207 188/1/55
f 196/1/199 197/1/199 206/1/199
f 196/1/199 206/1/199 207/1/199
f 204/1/199 205/1/199 209/1/199
f 204/1/199 209/1/199 208/1/199
f 228/1/194 226/1/194 217/1/194 224/1/194
f 207/1/199 209/1/199 205/1/199 196/1/199
f 228/2/52 223/2/52 219/2/52 226/2/52
f 253/1/208 252/1/208 250/1/208 251/1/208
f 200/2/209 209/2/209 207/2/209 198/2/209
f 211/1/1 210/1/1 197/1/1 196/1/1
f 228/2/2 229/2/2 220/2/2 223/2/2
f 223/2/2 220/2/2 221/2/2 222/2/2
f 248/1/208 246/1/208 237/1/208 244/1/208
f 243/2/2 240/2/2 241/2/2 242/2/2
f 221/2/210 220/2/210 218/2/210 214/2/210
f 220/2/104 229/2/104 227/2/104 218/2/104
f 242/2/211 241/2/211 234/2/211 235/2/211
f 213/1/209 211/1/209 196/1/209 205/1/209
f 253/1/212 251/1/212 236/1/212 245/1/212
f 243/2/213 242/2/213 235/2/213 239/2/213
f 216/1/194 217/1/194 226/1/194
f 216/1/194 226/1/194 227/1/194
f 224/1/194 225/1/194 229/1/194
f 224/1/194 229/1/194 228/1/194
f 247/1/208 249/1/208 245/1/208 236/1/208
f 178/1/214 191/1/215 190/1/215 176/1/216
f 212/1/2 213/1/2 205/1/2 204/1/2
f 232/1/2 233/1/2 225/1/2 224/1/2
f 248/2/217 243/2/217 239/2/217 246/2/217
f 248/2/2 249/2/2 240/2/2 243/2/2
f 226/2/1 219/2/1 218/2/1 227/2/1
f 246/2/1 239/2/1 238/2/1 247/2/1
f 239/2/1 235/2/1 234/2/1 238/2/1
f 233/1/104 231/1/104 216/1/104 225/1/104
f 250/1/217 252/1/217 244/1/217 237/1/217
f 188/1/59 140/1/218 138/1/219 187/1/59
f 186/1/49 136/1/220 135/1/221 185/1/49
f 192/1/104 148/1/222 146/1/223 191/1/104
f 190/1/120 144/1/224 142/1/225 189/1/120
f 236/1/208 237/1/208 246/1/208
f 236/1/208 246/1/208 247/1/208
f 244/1/208 245/1/208 249/1/208
f 244/1/208 249/1/208 248/1/208
f 208/1/199 206/1/199 197/1/199 204/1/199
f 227/1/194 229/1/194 225/1/194 216/1/194
f 251/1/1 250/1/1 237/1/1 236/1/1
f 252/1/2 253/1/2 245/1/2 244/1/2
f 240/2/212 249/2/212 247/2/212 238/2/212
f 208/2/2 209/2/2 200/2/2 203/2/2
f 193/3/114 150/3/226 148/1/227 192/1/114
